
<svg data-name="Layer 1" viewBox="0 0 738.82 576.27" xmlns="http://www.w3.org/2000/svg">
<style>

    @keyframes MoveUpDown {
    0%, 100% {
        transform: translate(-230.59px, -161.86px)
        
    }
    50% {
        transform: translate(-230.59px, -151.86px)
    }
    }

    .head {
    animation: MoveUpDown 3s linear infinite;
    }

</style>
<path transform="translate(-230.59 -161.86)" d="m844.97 410.39s-17.37 9.6614-12.37 20.661 76 2 76 2-5-15-14-18-49.63-4.6614-49.63-4.6614z" fill="#f0c43c"/>
<path transform="translate(-230.59 -161.86)" d="m838.2 412.97a33.803 33.803 0 0 1 11.446-4.7332 77.516 77.516 0 0 1 41.177 1.2843l-0.24481-0.1991a45.946 45.946 0 0 1 14.666 12.228z" fill="#ccc"/>
<path transform="translate(-230.59 -161.86)" d="m915.12 460.27q-0.36 5.385-0.72 10.76a172.67 172.67 0 0 1-2.45 22.38c-1.22 6.19-3.16 12.33-6.63 17.6-3.47 5.26-8.62 9.61-14.72 11.21a26.973 26.973 0 0 1-11.42 0.25c-7.13-4.05-11.96 1.13-4.84 6.4a55.187 55.187 0 0 0 5.03 3.31l3.23 49.87-60-13 11.71-66.34a39.59 39.59 0 0 1-4.9-5.35c-6.71-8.91-9.02-20.52-8.58-31.66 0.45-11.15 3.42-22.02 6.37-32.77a84.278 84.278 0 0 1 2.72-8.61c1.31 0.54 2.64 1.03 3.99 1.44 8.63 2.62 17.8 2.83 26.82 2.82q24.075-0.015 48.09-1.88a46.142 46.142 0 0 1 6.53 19.94 92.569 92.569 0 0 1-0.23 13.63z" fill="#ccc"/>
<path transform="translate(-230.59 -161.86)" d="m658.5 595.64 92.37 8.2 0.99 0.09v-394.14q-0.49494-0.345-0.99-0.69a288.32 288.32 0 0 0-62.01-32.94l-4.72 65.1-0.43 5.96-4.67 64.56-1.44 19.86-18.93 261.7z" fill="#e6e6e6"/>
<path transform="translate(-230.59 -161.86)" d="m430.07 202.46c-0.66 0.42-1.32 0.84-1.98 1.28v400.2l1.98-0.18 91.37-8.11-0.17-2.3-18.93-261.7-1.44-19.86-4.67-64.56-0.43-5.96-4.95-68.27a287.69 287.69 0 0 0-60.78 29.46z" fill="#e6e6e6"/>
<path transform="translate(-230.59 -161.86)" d="m428.09 203.74c-1.33 0.86-2.66 1.74-3.97 2.63v403.03c0 10.07 5.97 18.51 13.95 20.66a15.249 15.249 0 0 0 4 0.53h296.8a15.118 15.118 0 0 0 3.99-0.53 17.06 17.06 0 0 0 7.78-4.66 22.919 22.919 0 0 0 6.18-16v-396.02c-1.64-1.21-3.29-2.41-4.96-3.58q-0.49494-0.345-0.99-0.69v400.29a16.108 16.108 0 0 1-0.46 3.85c-1.41 5.95-6.06 10.31-11.54 10.31h-296.8c-6.62 0-12-6.35-12-14.16v-406.94c-0.66 0.42-1.32 0.84-1.98 1.28z" fill="#e6e6e6"/>
<rect x="196.5" y="79.404" width="326.75" height="5.959" fill="#e6e6e6"/>
<path transform="translate(-230.59 -161.86)" d="M653.77,165.255c-1.98-.49-3.96-.95-5.96-1.38v161.81h5.96Z" fill="#e6e6e6"/>
<path transform="translate(-230.59 -161.86)" d="M533.13,161.865c-1.99.37-3.98.75-5.96,1.16v162.66h5.96Z" fill="#e6e6e6"/>
<path transform="translate(-230.59 -161.86)" d="m363.03 620.16a26.711 26.711 0 0 0 1.93 9.98 25.54 25.54 0 0 0 1.75 3.56 27.096 27.096 0 0 0 3.02 4.18 26.76 26.76 0 0 0 20.12 9.11h391.31a26.82 26.82 0 0 0 0-53.64h-391.31a26.846 26.846 0 0 0-26.82 26.81z" fill="#e6e6e6"/>
<rect transform="translate(948.36 481.57) rotate(180)" x="427.09" y="311.78" width="324.77" height="19.863" fill="#e6e6e6"/>
<path transform="translate(948.36 460.71) rotate(180)" d="m575.57 305.82h27.809a10.925 10.925 0 0 1-10.925 10.925h-5.959a10.925 10.925 0 0 1-10.925-10.925 0 0 0 0 1-2e-5 0z" fill="#e6e6e6"/>
<path transform="translate(-230.59 -161.86)" d="m230.59 635.48a289 289 0 0 0 28.12 28.95h682.58a289 289 0 0 0 28.12-28.95z" fill="#3f3d56"/>
<path transform="translate(-230.59 -161.86)" d="m415.75 538.66v102.56h71.85v-102.56a3.448 3.448 0 0 0-2.43-3.3 3.1746 3.1746 0 0 0-1.03-0.16h-64.92a3.4633 3.4633 0 0 0-3.47 3.46zm28.04 35.24a7.6703 7.6703 0 0 1 15.34 0v11.9a7.6701 7.6701 0 0 1-15.34 0z" fill="#2f2e41"/>
<path transform="translate(-230.59 -161.86)" d="m415.53 637.94v9.89a1.9462 1.9462 0 0 0 1.93 1.94h68.43a1.9397 1.9397 0 0 0 1.93-1.94v-9.89z" fill="#3f3d56"/>
<path transform="translate(-230.59 -161.86)" d="m302.72 384.14v187.26a9.0071 9.0071 0 0 0 9 9h277.5a9.0071 9.0071 0 0 0 9-9v-187.26a9.0115 9.0115 0 0 0-9-8.99h-277.5a9.0115 9.0115 0 0 0-9 8.99z" fill="#3f3d56"/>
<path transform="translate(-230.59 -161.86)" d="m309.23 386.48v182.62a4.8183 4.8183 0 0 0 4.81 4.81h272.87a4.8183 4.8183 0 0 0 4.81-4.81v-182.62a4.8205 4.8205 0 0 0-4.81-4.82h-272.87a4.8205 4.8205 0 0 0-4.81 4.82z" fill="#f0c43c"/>
<path transform="translate(-230.59 -161.86)" d="m364.87 652.1a2.9484 2.9484 0 0 0 2.32 1.11h162.34a2.9872 2.9872 0 0 0 2.92-3.6l-2.52-11.97a2.9926 2.9926 0 0 0-1.86-2.17 2.8946 2.8946 0 0 0-1.06-0.2h-157.31a2.8943 2.8943 0 0 0-1.06 0.2 2.9924 2.9924 0 0 0-1.86 2.17l-2.52 11.97a2.9849 2.9849 0 0 0 0.61 2.49z" fill="#2f2e41"/>
<rect transform="translate(816.12 1116) rotate(180)" x="520.86" y="637.43" width="5" height="3" rx=".48819" fill="#3f3d56"/>
<rect transform="translate(796.12 1116) rotate(180)" x="510.86" y="637.43" width="5" height="3" rx=".48819" fill="#3f3d56"/>
<rect transform="translate(776.12 1116) rotate(180)" x="500.86" y="637.43" width="5" height="3" rx=".48819" fill="#3f3d56"/>
<rect transform="translate(756.12 1116) rotate(180)" x="490.86" y="637.43" width="5" height="3" rx=".48819" fill="#3f3d56"/>
<rect transform="translate(736.12 1116) rotate(180)" x="480.86" y="637.43" width="5" height="3" rx=".48819" fill="#3f3d56"/>
<rect transform="translate(716.12 1116) rotate(180)" x="470.86" y="637.43" width="5" height="3" rx=".48819" fill="#3f3d56"/>
<rect transform="translate(696.12 1116) rotate(180)" x="460.86" y="637.43" width="5" height="3" rx=".48819" fill="#3f3d56"/>
<rect transform="translate(676.12 1116) rotate(180)" x="450.86" y="637.43" width="5" height="3" rx=".48819" fill="#3f3d56"/>
<rect transform="translate(656.12 1116) rotate(180)" x="440.86" y="637.43" width="5" height="3" rx=".48819" fill="#3f3d56"/>
<rect transform="translate(636.12 1116) rotate(180)" x="430.86" y="637.43" width="5" height="3" rx=".48819" fill="#3f3d56"/>
<rect transform="translate(616.12 1116) rotate(180)" x="420.86" y="637.43" width="5" height="3" rx=".48819" fill="#3f3d56"/>
<rect transform="translate(596.12 1116) rotate(180)" x="410.86" y="637.43" width="5" height="3" rx=".48819" fill="#3f3d56"/>
<rect transform="translate(576.12 1116) rotate(180)" x="400.86" y="637.43" width="5" height="3" rx=".48819" fill="#3f3d56"/>
<rect transform="translate(556.12 1116) rotate(180)" x="390.86" y="637.43" width="5" height="3" rx=".48819" fill="#3f3d56"/>
<rect transform="translate(536.12 1116) rotate(180)" x="380.86" y="637.43" width="5" height="3" rx=".48819" fill="#3f3d56"/>
<rect transform="translate(516.12 1116) rotate(180)" x="370.86" y="637.43" width="5" height="3" rx=".48819" fill="#3f3d56"/>
<rect transform="translate(816.36 1126) rotate(180)" x="520.98" y="642.43" width="5" height="3" rx=".48819" fill="#3f3d56"/>
<rect transform="translate(796.36 1126) rotate(180)" x="510.98" y="642.43" width="5" height="3" rx=".48819" fill="#3f3d56"/>
<rect transform="translate(776.36 1126) rotate(180)" x="500.98" y="642.43" width="5" height="3" rx=".48819" fill="#3f3d56"/>
<rect transform="translate(756.36 1126) rotate(180)" x="490.98" y="642.43" width="5" height="3" rx=".48819" fill="#3f3d56"/>
<rect transform="translate(736.36 1126) rotate(180)" x="480.98" y="642.43" width="5" height="3" rx=".48819" fill="#3f3d56"/>
<rect transform="translate(716.36 1126) rotate(180)" x="470.98" y="642.43" width="5" height="3" rx=".48819" fill="#3f3d56"/>
<rect transform="translate(696.36 1126) rotate(180)" x="460.98" y="642.43" width="5" height="3" rx=".48819" fill="#3f3d56"/>
<rect transform="translate(676.36 1126) rotate(180)" x="450.98" y="642.43" width="5" height="3" rx=".48819" fill="#3f3d56"/>
<rect transform="translate(656.36 1126) rotate(180)" x="440.98" y="642.43" width="5" height="3" rx=".48819" fill="#3f3d56"/>
<rect transform="translate(636.36 1126) rotate(180)" x="430.98" y="642.43" width="5" height="3" rx=".48819" fill="#3f3d56"/>
<rect transform="translate(616.36 1126) rotate(180)" x="420.98" y="642.43" width="5" height="3" rx=".48819" fill="#3f3d56"/>
<rect transform="translate(596.36 1126) rotate(180)" x="410.98" y="642.43" width="5" height="3" rx=".48819" fill="#3f3d56"/>
<rect transform="translate(576.36 1126) rotate(180)" x="400.98" y="642.43" width="5" height="3" rx=".48819" fill="#3f3d56"/>
<rect transform="translate(556.36 1126) rotate(180)" x="390.98" y="642.43" width="5" height="3" rx=".48819" fill="#3f3d56"/>
<rect transform="translate(536.36 1126) rotate(180)" x="380.98" y="642.43" width="5" height="3" rx=".48819" fill="#3f3d56"/>
<rect transform="translate(516.36 1126) rotate(180)" x="370.98" y="642.43" width="5" height="3" rx=".48819" fill="#3f3d56"/>
<rect transform="translate(685.36 1138) rotate(180)" x="437.98" y="648.43" width="40" height="3" rx=".48819" fill="#3f3d56"/>
<path transform="translate(-230.59 -161.86)" d="m327.75 406.81h255.32a1.0156 1.0156 0 0 0 0-2.0307h-255.32a1.0156 1.0156 0 0 0 0 2.0307z" fill="#3f3d56"/>
<ellipse cx="335.11" cy="231.65" rx="5.9504" ry="6.083" fill="#3f3d56"/>
<ellipse cx="314.55" cy="231.65" rx="5.9504" ry="6.083" fill="#3f3d56"/>
<ellipse cx="293.99" cy="231.65" rx="5.9504" ry="6.083" fill="#3f3d56"/>
<path transform="translate(-230.59 -161.86)" d="m339.04 390.04a1.0948 1.0948 0 0 0 1.09 1.1h14.6a1.1053 1.1053 0 0 0 0-2.21h-14.6a1.1034 1.1034 0 0 0-1.09 1.11z" fill="#3f3d56"/>
<path transform="translate(-230.59 -161.86)" d="m339.04 394.2a1.0947 1.0947 0 0 0 1.09 1.1h14.6a1.1053 1.1053 0 0 0 0-2.21h-14.6a1.1034 1.1034 0 0 0-1.09 1.11z" fill="#3f3d56"/>
<path transform="translate(-230.59 -161.86)" d="m339.04 398.34a1.1034 1.1034 0 0 0 1.09 1.11h14.6a1.1053 1.1053 0 0 0 0-2.21h-14.6a1.0948 1.0948 0 0 0-1.09 1.1z" fill="#3f3d56"/>
<rect x="104.84" y="268.54" width="11.006" height="5.7599" rx="2.88" fill="#e6e6e6"/>
<rect x="164.84" y="268.54" width="11.006" height="5.7599" rx="2.88" fill="#e6e6e6"/>
<rect x="181.84" y="268.54" width="11.006" height="5.7599" rx="2.88" fill="#e6e6e6"/>
<rect x="121.16" y="268.06" width="38.366" height="5.7599" rx="2.88" fill="#e6e6e6"/>
<rect x="201.16" y="268.06" width="38.366" height="5.7599" rx="2.88" fill="#e6e6e6"/>
<rect x="120.84" y="281.54" width="11.006" height="5.7599" rx="2.88" fill="#e6e6e6"/>
<rect x="180.84" y="281.54" width="11.006" height="5.7599" rx="2.88" fill="#e6e6e6"/>
<rect x="197.84" y="281.54" width="11.006" height="5.7599" rx="2.88" fill="#e6e6e6"/>
<rect x="137.16" y="281.06" width="38.366" height="5.7599" rx="2.88" fill="#e6e6e6"/>
<rect x="217.16" y="281.06" width="38.366" height="5.7599" rx="2.88" fill="#e6e6e6"/>
<rect x="136.84" y="294.54" width="11.006" height="5.7599" rx="2.88" fill="#e6e6e6"/>
<rect x="196.84" y="294.54" width="11.006" height="5.7599" rx="2.88" fill="#e6e6e6"/>
<rect x="213.84" y="294.54" width="11.006" height="5.7599" rx="2.88" fill="#e6e6e6"/>
<rect x="153.16" y="294.06" width="38.366" height="5.7599" rx="2.88" fill="#e6e6e6"/>
<rect x="233.16" y="294.06" width="38.366" height="5.7599" rx="2.88" fill="#e6e6e6"/>
<rect x="152.84" y="307.54" width="11.006" height="5.7599" rx="2.88" fill="#e6e6e6"/>
<rect x="212.84" y="307.54" width="11.006" height="5.7599" rx="2.88" fill="#e6e6e6"/>
<rect x="229.84" y="307.54" width="11.006" height="5.7599" rx="2.88" fill="#e6e6e6"/>
<rect x="169.16" y="307.06" width="38.366" height="5.7599" rx="2.88" fill="#e6e6e6"/>
<rect x="164.84" y="359.24" width="11.006" height="5.7599" rx="2.88" fill="#e6e6e6"/>
<rect x="181.84" y="359.24" width="11.006" height="5.7599" rx="2.88" fill="#e6e6e6"/>
<rect x="201.16" y="359.72" width="38.366" height="5.7599" rx="2.88" fill="#e6e6e6"/>
<rect x="104.84" y="359.24" width="11.006" height="5.7599" rx="2.88" fill="#e6e6e6"/>
<rect x="121.16" y="359.72" width="38.366" height="5.7599" rx="2.88" fill="#e6e6e6"/>
<rect x="120.84" y="346.24" width="11.006" height="5.7599" rx="2.88" fill="#e6e6e6"/>
<rect x="180.84" y="346.24" width="11.006" height="5.7599" rx="2.88" fill="#e6e6e6"/>
<rect x="197.84" y="346.24" width="11.006" height="5.7599" rx="2.88" fill="#e6e6e6"/>
<rect x="137.16" y="346.72" width="38.366" height="5.7599" rx="2.88" fill="#e6e6e6"/>
<rect x="136.84" y="333.24" width="11.006" height="5.7599" rx="2.88" fill="#e6e6e6"/>
<rect x="196.84" y="333.24" width="11.006" height="5.7599" rx="2.88" fill="#e6e6e6"/>
<rect x="213.84" y="333.24" width="11.006" height="5.7599" rx="2.88" fill="#e6e6e6"/>
<rect x="153.16" y="333.72" width="38.366" height="5.7599" rx="2.88" fill="#e6e6e6"/>
<rect x="152.84" y="320.24" width="11.006" height="5.7599" rx="2.88" fill="#e6e6e6"/>
<rect x="212.84" y="320.24" width="11.006" height="5.7599" rx="2.88" fill="#e6e6e6"/>
<rect x="229.84" y="320.24" width="11.006" height="5.7599" rx="2.88" fill="#e6e6e6"/>
<rect x="169.16" y="320.72" width="38.366" height="5.7599" rx="2.88" fill="#e6e6e6"/>
<path transform="translate(-230.59 -161.86)" d="M324.69,708.905c.61.31,1.23.62,1.84.92,15.8,7.9,28.43994,12.39,45.73,17.31,1.46-16.3,2.87-44.95,4.24-62.71.36-4.61.72-8.48,1.07-11.21a15.1823,15.1823,0,0,1,.88-4.25l-.06,4.25-.15,11.21-.87,64.11a288.58782,288.58782,0,0,0,65.84,9.49c1.16.03,2.3.05,3.4.06995.39.01.77.02,1.15.02,1.25.01,2.49.02,3.74.02a289.27116,289.27116,0,0,0,69.54-8.43c-.49-16.13-.98-44.46-1.45-65.28-.1-4.07-.19-7.86-.29-11.21-.19-7.16-.39-12.31995-.58-14.05a4.36108,4.36108,0,0,1,.39.97,97.15388,97.15388,0,0,1,1.89,13.08c.35,3.35.7,7.14,1.05,11.21,1.86,21.63,3.8,51.04,5.8,63.51a285.47262,285.47262,0,0,0,34.97-12.03q9-3.75,17.68-8.09c-1.1-7.2-2.25-15.27-3.43-23.64-.92-6.49-1.87-13.16-2.84-19.75-1.5-10.18-23.79-81.32-25.19995-84.02-1.21-2.31-2.36005-4.49-3.45-6.5-2.64-4.88-4.88-8.77-6.54-11.23a55.25656,55.25656,0,0,0-29.28-22.21l-.3-.08-.21.09-20.45-6.28-2.99-.92-2.01-.62-7.08-5.39-3.85-2.93-3.61-2.75-7.06-5.37-43.71,2.69-8.51,20.49-19.06,6.97-.32995-.15-.29-.12-.3.08a55.306,55.306,0,0,0-29.28,22.21c-.93994,1.41-2.08,3.27-3.37,5.52-1.1,1.91-2.3,4.09-3.6,6.5-1.85,3.43-3.87,7.3-6.01,11.49-.47.92-.95,1.86-1.43,2.81q-1.335,2.63993-2.71,5.38995c-2.13,4.25-4.33,8.69-6.53,13.2-1.91,3.91-3.84,11.95-5.74,22.18-1.57,8.5-3.13,18.52-4.64,28.95-1.98,13.52.13,29.71-1.66,42.15C324.92,707.365,324.8,708.135,324.69,708.905Z" fill="#3f3d56"/>
<polygon points="303.59 473.57 295.09 440.77 287.59 469.07" opacity=".2"/>
<path transform="translate(-230.59 -161.86)" d="m308.07 614.06c3.04 41.88-0.11 60.32 16.67 94.85a286.16 286.16 0 0 0 47.52 18.22q2.55 0.72 5.11 1.4a288.59 288.59 0 0 0 65.84 9.49c1.16 0.03 2.3 0.05 3.4 0.06995 0.39 0.01 0.77 0.02 1.15 0.02 1.25 0.01 2.49 0.02 3.74 0.02a289.27 289.27 0 0 0 69.54-8.43q3.42-0.84 6.81-1.77a285.47 285.47 0 0 0 34.97-12.03q9-3.75 17.68-8.09c1.31-0.66 2.62-1.32 3.91-2 6.63-11.66 10.4-25.84 10.48-42.88-4.59-29.36-276.68-74.19-286.82-48.87z" fill="#2f2e41"/>
<path transform="translate(-230.59 -161.86)" d="m308.08 621.24c-0.15527-2.5927-0.32886-5.2709-0.53131-8.0599 10.14-25.32 282.23 19.51 286.82 48.87-0.01264 2.6918-0.12775 5.3041-0.32129 7.8546-11.116-28.978-269.6-71.586-285.97-48.665z" opacity=".2"/>
<path transform="translate(-230.59 -161.86)" d="m246.42 635.05a6.4162 6.4162 0 0 0 6.1831 4.331l26.492-0.68174a6.3285 6.3285 0 0 0 5.9808-4.657l3.7489-40.087a9.794 9.794 0 0 0 4.2379 0.87079 9.6613 9.6613 0 0 0-0.48492-19.317 8.184 8.184 0 0 0-1.7362 0.18056 6.5476 6.5476 0 0 0-4.874-2.103l-40.751 1.0523a5.8542 5.8542 0 0 0-1.0052 0.1248 6.3646 6.3646 0 0 0-4.8732 8.2646zm43.173-43.817 2.6676-9.5527a6.5064 6.5064 0 0 0 0.02037-3.3746c0.12944-3.4e-4 0.24362-0.06168 0.37306-0.062a6.9105 6.9105 0 0 1 0.32357 13.817 6.5052 6.5052 0 0 1-3.3846-0.82782z" fill="#2f2e41"/>
<path transform="translate(-230.59 -161.86)" d="m244.21 574.76c0.86818 4.9641 10.629 8.4539 22.366 7.8473 10.793-0.49726 19.617-4.287 21.234-8.7785a6.025 6.025 0 0 0-1.8444-0.24588l-40.751 1.0523a5.8542 5.8542 0 0 0-1.0052 0.1248z" fill="#3f3d56"/>
<path transform="translate(-230.59 -161.86)" d="M268.728,613.02251a.49659.49659,0,0,0,.15091-.06642l5.75315-3.76566a.49922.49922,0,0,0,.00032-.83621l-5.97978-3.91667a.49972.49972,0,1,0-.54792.83585l5.34091,3.49818-5.114,3.34794a.49991.49991,0,0,0,.39637.903Z" fill="#f0c43c"/>
<path transform="translate(-230.59 -161.86)" d="M259.6412,613.44155a.5.5,0,0,0,.12608-.91842l-5.30305-3.04034,5.1256-3.80723a.49963.49963,0,1,0-.596-.80208l-5.73863,4.26265a.49951.49951,0,0,0,.04918.83476l5.96526,3.41968A.49962.49962,0,0,0,259.6412,613.44155Z" fill="#f0c43c"/>
<path transform="translate(-230.59 -161.86)" d="M268.15573,616.32252a.48211.48211,0,0,0,.137-.05785.49976.49976,0,0,0,.16751-.68714l-8.15548-13.40836a.50026.50026,0,0,0-.85441.52058l8.15548,13.40835A.50033.50033,0,0,0,268.15573,616.32252Z" fill="#f0c43c"/>
<rect x="582.01" y="398.19" width="89" height="78" fill="#3f3d56"/>
<path transform="translate(-230.59 -161.86)" d="m914.79 451.1a47.543 47.543 0 0 0 4.1444 28.743c1.6084 3.2786 3.6003 7.2283 1.6418 10.311a6.3515 6.3515 0 0 1-4.7843 2.6512 15.579 15.579 0 0 1-5.5834-0.723" fill="#ccc"/>
<ellipse cx="606.01" cy="256.69" rx="3" ry="2.5" fill="#3f3d56"/>
<ellipse cx="617.01" cy="257.69" rx="3" ry="2.5" fill="#3f3d56"/>
<ellipse cx="628.01" cy="262.69" rx="3" ry="2.5" fill="#3f3d56"/>
<ellipse cx="641.01" cy="259.69" rx="3" ry="2.5" fill="#3f3d56"/>
<path transform="translate(-230.59 -161.86)" d="m598.52 471.43c14.57-4.0448 30.799 0.29013 42.058 10.22a43.888 43.888 0 0 1 12.879 20.148c2.8747 9.2587 3.3502 19.025 3.6513 28.65 0.33295 10.642 0.62195 21.285 0.932 31.927 0.29563 10.147 0.33033 20.342 1.0073 30.472 0.56808 8.5006 1.9288 17.325 6.4781 24.698 4.2177 6.8353 10.881 11.451 18.412 13.995 7.6328 2.5786 15.861 3.1788 23.868 3.1261a184.22 184.22 0 0 0 27.828-2.2032c17.487-2.8014 34.76-9.9468 45.44-24.689a40.91 40.91 0 0 0 7.9225-23.028c0.22517-9.6748-2.8659-19.046-6.2515-27.982-3.2946-8.6961-6.8589-17.264-8.9444-26.356a110.58 110.58 0 0 1-2.7495-25.943 114.05 114.05 0 0 1 12.229-50.225 98.679 98.679 0 0 1 15.014-22.075c6.1684-6.712 13.807-12.253 22.89-14.069a27.638 27.638 0 0 1 13.368 0.53755c1.8535 0.555 2.6454-2.3395 0.79752-2.8928-8.9981-2.6942-18.774-0.64565-26.751 4.0306-7.8443 4.598-14.043 11.496-19.304 18.809a116.17 116.17 0 0 0-16.429 99.955c5.3387 17.489 16.95 35.694 11.962 54.621-4.3663 16.567-19.492 27.825-35.117 32.911-9.4794 3.0855-19.418 4.3908-29.331 5.066-8.3775 0.57059-16.869 0.93352-25.222-0.1431-7.6726-0.98887-15.565-3.3343-21.514-8.4846-6.5207-5.6454-9.5011-13.758-10.798-22.083-1.4677-9.4196-1.252-19.133-1.5289-28.638l-0.9452-32.443c-0.53384-18.324-0.07373-38.631-11.995-53.814a49.958 49.958 0 0 0-39.697-18.61 44.882 44.882 0 0 0-10.955 1.6183 1.5013 1.5013 0 0 0 0.79752 2.8928z" fill="#3f3d56"/>
<path class="head" transform="translate(-230.59 -161.86)" d="m385.56 452.45a57.571 57.571 0 0 0 114.04-15.91l-0.114-0.81682a57.571 57.571 0 0 0-113.91 16.724z" fill="#ffb6b6"/>
<path class="head" transform="translate(-230.59 -161.86)" d="m436.31 500.06c-2.9766-5.9956-6.0352-12.433-5.2266-19.078s7.3012-13.015 13.704-11.063c3.8287 1.1676 6.7322 4.9348 10.731 5.1147 5.502 0.2475 8.6349-6.059 10.33-11.299l6.9022-21.342c13.313 10.459-3.5475-0.50593 12.944-4.3346 6.4699-1.502 13.002-4.4103 16.781-9.8718s3.7287-13.913-1.4945-18.016c-2.5611-2.0117-5.9635-2.7679-8.4117-4.9155a9.4072 9.4072 0 0 1 7.457-16.395l-17.566-2.1358 5.2-9.4797c-3.7597 2.9843-9.0049 3.4015-13.732 2.5667s-9.1827-2.765-13.809-4.0467c-22.207-6.153-47.956 4.7609-58.977 24.998a22.478 22.478 0 0 0-24.484 7.1587c-4.6805 5.9817-5.9322 13.947-6.0889 21.541a93.368 93.368 0 0 0 9.6624 43.219c2.0696 4.1715 4.5158 8.2636 8.0334 11.315s43.271 19.955 47.859 19.158" fill="#2f2e41"/>
<path transform="translate(-230.59 -161.86)" d="M851.59859,460.5505a29.65677,29.65677,0,0,1-.99,7.69v.01c-.01.05-.03.1-.04.15-2.02,7.43-6.84,12.65-12.47,12.65-5.6,0-10.4-5.18-12.45-12.55-.14-.51-.26-1.02-.37-1.55-.14-.59-.25-1.2-.34-1.83-.08-.5-.14-1.01-.19-1.53-.07-.72-.12-1.44-.13-2.19v-.01c-.02-.28-.02-.56-.02-.84v-.25l.01-.01a29.29714,29.29714,0,0,1,.25-3.79c.07-.53.15-1.04.25-1.55.12-.62.25-1.23.41-1.83.13-.53.28-1.04.44-1.55.22-.68.46-1.34.73-1.97.17-.41.35-.81.53-1.2,2.46-5.06,6.42-8.35,10.88-8.35,6.17,0,11.37,6.29,12.98,14.87.02.13.05.26.06.39v.01A29.58013,29.58013,0,0,1,851.59859,460.5505Z" fill="#e6e6e6"/>
<path transform="translate(-230.59 -161.86)" d="m827.35 448.84a0.79582 0.79582 0 0 1-0.66 0.76c0.17-0.41 0.35-0.81 0.53-1.2a0.83923 0.83923 0 0 1 0.13 0.44z" fill="#f0c43c"/>
<rect x="599" y="286.06" width="10.354" height="1.5545" rx=".77727" fill="#f0c43c"/>
<path transform="translate(-230.59 -161.86)" d="M827.07857,452.34048a.781.781,0,0,1-.78.78h-.78c.13-.53.28-1.04.44-1.55h.34A.779.779,0,0,1,827.07857,452.34048Z" fill="#f0c43c"/>
<rect x="598.11" y="289.7" width="2.9704" height="1.5545" rx=".77727" fill="#f0c43c"/>
<rect x="603.32" y="289.57" width="10.354" height="1.5545" rx=".77727" fill="#f0c43c"/>
<rect x="597.84" y="293.21" width="2.9704" height="1.5545" rx=".77727" fill="#f0c43c"/>
<rect x="602.43" y="293.21" width="2.9704" height="1.5545" rx=".77727" fill="#f0c43c"/>
<path transform="translate(-230.59 -161.86)" d="m827 455.72a0.78106 0.78106 0 0 1-0.78 0.78h-1.36c0.07-0.53 0.15-1.04 0.25-1.55h1.11a0.77256 0.77256 0 0 1 0.78 0.77z" fill="#f0c43c"/>
<rect x="607.64" y="293.08" width="10.354" height="1.5545" rx=".77727" fill="#f0c43c"/>
<path transform="translate(-230.59 -161.86)" d="M827.34859,460.84048a.77253.77253,0,0,1-.78.77h-1.41a.79058.79058,0,0,1-.54-.21v-.01c-.02-.28-.02-.56-.02-.84v-.25l.01-.01a.76989.76989,0,0,1,.55-.23h1.41A.781.781,0,0,1,827.34859,460.84048Z" fill="#ccc"/>
<rect x="599" y="298.06" width="10.354" height="1.5545" rx=".77727" fill="#ccc"/>
<path transform="translate(-230.59 -161.86)" d="M827.07857,464.34048a.781.781,0,0,1-.78.78h-1.36c-.08-.5-.14-1.01-.19-1.53a.33979.33979,0,0,1,.13995-.02h1.41A.779.779,0,0,1,827.07857,464.34048Z" fill="#ccc"/>
<rect x="598.11" y="301.7" width="2.9704" height="1.5545" rx=".77727" fill="#ccc"/>
<rect x="603.32" y="301.57" width="10.354" height="1.5545" rx=".77727" fill="#ccc"/>
<rect x="597.84" y="305.21" width="2.9704" height="1.5545" rx=".77727" fill="#ccc"/>
<rect x="602.43" y="305.21" width="2.9704" height="1.5545" rx=".77727" fill="#ccc"/>
<path transform="translate(-230.59 -161.86)" d="m827 467.72a0.78106 0.78106 0 0 1-0.78 0.78h-0.57c-0.14-0.51-0.26-1.02-0.37-1.55h0.94a0.77256 0.77256 0 0 1 0.78 0.77z" fill="#ccc"/>
<rect x="607.64" y="305.08" width="10.354" height="1.5545" rx=".77727" fill="#ccc"/>
</svg>
