<svg id="visual" viewBox="0 0 900 600" width="900" height="600" xmlns="http://www.w3.org/2000/svg" xmlns:xlink="http://www.w3.org/1999/xlink" version="1.1"><rect x="0" y="0" width="900" height="600" fill="#1d1e28"></rect><defs><linearGradient id="grad1_0" x1="33.3%" y1="0%" x2="100%" y2="100%"><stop offset="20%" stop-color="#1d1e28" stop-opacity="1"></stop><stop offset="80%" stop-color="#1d1e28" stop-opacity="1"></stop></linearGradient></defs><defs><linearGradient id="grad2_0" x1="0%" y1="0%" x2="66.7%" y2="100%"><stop offset="20%" stop-color="#1d1e28" stop-opacity="1"></stop><stop offset="80%" stop-color="#1d1e28" stop-opacity="1"></stop></linearGradient></defs><g transform="translate(900, 0)"><path d="M0 270.4C-28.6 252.7 -57.2 235 -93.4 225.4C-129.5 215.9 -173.2 214.5 -191.2 191.2C-209.3 167.9 -201.7 122.8 -210.6 87.3C-219.6 51.7 -245 25.9 -270.4 0L0 0Z" fill="#FBAE3C"></path></g><g transform="translate(0, 600)"><path d="M0 -270.4C36.6 -268.5 73.2 -266.6 103.5 -249.8C133.8 -233 157.7 -201.4 171.1 -171.1C184.6 -140.9 187.5 -112.1 202.3 -83.8C217.1 -55.5 243.8 -27.8 270.4 0L0 0Z" fill="#FBAE3C"></path></g></svg>